<svg xmlns="http://www.w3.org/2000/svg" viewBox="0 0 512 512" fill="none">
  <defs>
    <linearGradient id="wheelGrad1" x1="0%" y1="0%" x2="100%" y2="100%">
      <stop offset="0%" style="stop-color:#ffd700;stop-opacity:1" />
      <stop offset="100%" style="stop-color:#ff8c00;stop-opacity:1" />
    </linearGradient>
    <linearGradient id="wheelGrad2" x1="0%" y1="0%" x2="100%" y2="100%">
      <stop offset="0%" style="stop-color:#667eea;stop-opacity:1" />
      <stop offset="100%" style="stop-color:#764ba2;stop-opacity:1" />
    </linearGradient>
    <linearGradient id="wheelGrad3" x1="0%" y1="0%" x2="100%" y2="100%">
      <stop offset="0%" style="stop-color:#f093fb;stop-opacity:1" />
      <stop offset="100%" style="stop-color:#f5576c;stop-opacity:1" />
    </linearGradient>
    <linearGradient id="wheelGrad4" x1="0%" y1="0%" x2="100%" y2="100%">
      <stop offset="0%" style="stop-color:#4facfe;stop-opacity:1" />
      <stop offset="100%" style="stop-color:#00f2fe;stop-opacity:1" />
    </linearGradient>
  </defs>
  
  <!-- Wheel segments -->
  <g transform="translate(256, 256)">
    <!-- Segment 1 -->
    <path d="M 0,0 L 200,0 A 200,200 0 0,1 141.42,141.42 z" fill="url(#wheelGrad1)" stroke="#fff" stroke-width="4"/>
    <!-- Segment 2 -->
    <path d="M 0,0 L 141.42,141.42 A 200,200 0 0,1 0,200 z" fill="url(#wheelGrad2)" stroke="#fff" stroke-width="4"/>
    <!-- Segment 3 -->
    <path d="M 0,0 L 0,200 A 200,200 0 0,1 -141.42,141.42 z" fill="url(#wheelGrad3)" stroke="#fff" stroke-width="4"/>
    <!-- Segment 4 -->
    <path d="M 0,0 L -141.42,141.42 A 200,200 0 0,1 -200,0 z" fill="url(#wheelGrad4)" stroke="#fff" stroke-width="4"/>
    <!-- Segment 5 -->
    <path d="M 0,0 L -200,0 A 200,200 0 0,1 -141.42,-141.42 z" fill="url(#wheelGrad1)" stroke="#fff" stroke-width="4"/>
    <!-- Segment 6 -->
    <path d="M 0,0 L -141.42,-141.42 A 200,200 0 0,1 0,-200 z" fill="url(#wheelGrad2)" stroke="#fff" stroke-width="4"/>
    <!-- Segment 7 -->
    <path d="M 0,0 L 0,-200 A 200,200 0 0,1 141.42,-141.42 z" fill="url(#wheelGrad3)" stroke="#fff" stroke-width="4"/>
    <!-- Segment 8 -->
    <path d="M 0,0 L 141.42,-141.42 A 200,200 0 0,1 200,0 z" fill="url(#wheelGrad4)" stroke="#fff" stroke-width="4"/>
    
    <!-- Center circle -->
    <circle cx="0" cy="0" r="50" fill="#ffd700" stroke="#fff" stroke-width="4"/>
    
    <!-- Center star -->
    <path d="M 0,-20 L 6,-6 L 20,-6 L 8,4 L 12,18 L 0,8 L -12,18 L -8,4 L -20,-6 L -6,-6 z" fill="#fff"/>
  </g>
  
  <!-- Pointer -->
  <path d="M 470,256 L 490,240 L 490,272 z" fill="#ff0000" stroke="#fff" stroke-width="2"/>
</svg>
